<?xml version="1.0" encoding="utf-8"?>
<svg version="1.1" id="Layer_1" xmlns="http://www.w3.org/2000/svg" viewBox="0 0 24 24">
	<path d="M23,17h-4V8c0-1.654-1.346-3-3.009-3L7.095,5.077L7.13,1.009C7.135,0.457,6.691,0.005,6.139,0 C5.566-0.039,5.135,0.439,5.13,0.991L5.094,5.094L0.991,5.13C0.439,5.135-0.005,5.586,0,6.139S0.421,7.128,1.009,7.13l4.068-0.035 L5,16c0,1.654,1.346,3,3,3h9v4c0,0.553,0.447,1,1,1s1-0.447,1-1v-4h4c0.553,0,1-0.447,1-1S23.553,17,23,17z M8,17 c-0.551,0-1-0.448-1-0.991l0.077-8.931L16,7c0.552,0,1,0.449,1,1v9H8z"/>
</svg>
