<?xml version="1.0" encoding="utf-8"?>
<svg version="1.1" id="Layer_1" xmlns="http://www.w3.org/2000/svg" viewBox="0 0 24 24">
	<path d="M12,9c1.654,0,3-1.346,3-3s-1.346-3-3-3S9,4.346,9,6S10.346,9,12,9z M12,5c0.552,0,1,0.449,1,1s-0.448,1-1,1 c-0.551,0-1-0.449-1-1S11.449,5,12,5z M19,11H5c-0.552,0-1,0.448-1,1c0,0.553,0.448,1,1,1h14c0.553,0,1-0.447,1-1C20,11.448,19.553,11,19,11z M12,15c-1.654,0-3,1.346-3,3s1.346,3,3,3s3-1.346,3-3S13.654,15,12,15z M12,19c-0.551,0-1-0.448-1-1s0.449-1,1-1 c0.552,0,1,0.448,1,1S12.552,19,12,19z"/>
</svg>
