<?xml version="1.0" encoding="utf-8"?>
<svg version="1.1" id="Layer_1" xmlns="http://www.w3.org/2000/svg" viewBox="0 0 24 24">
	<path d="M14.5,11H13V6h4c0.553,0,1-0.448,1-1s-0.447-1-1-1h-4V1c0-0.552-0.447-1-1-1c-0.552,0-1,0.448-1,1v3H9.5 C7.019,4,5,6.019,5,8.5S7.019,13,9.5,13H11v5H6c-0.552,0-1,0.447-1,1s0.448,1,1,1h5v3c0,0.553,0.448,1,1,1c0.553,0,1-0.447,1-1v-3 h1.5c2.481,0,4.5-2.019,4.5-4.5S16.981,11,14.5,11z M9.5,11C8.122,11,7,9.878,7,8.5S8.122,6,9.5,6H11v5H9.5z M14.5,18H13v-5h1.5 c1.379,0,2.5,1.121,2.5,2.5S15.879,18,14.5,18z"/>
</svg>
