<?xml version="1.0" encoding="utf-8"?>
<svg version="1.1" id="Layer_1" xmlns="http://www.w3.org/2000/svg" viewBox="0 0 24 24">
	<path d="M12,1C5.935,1,1,5.935,1,12s4.935,11,11,11s11-4.935,11-11S18.065,1,12,1z M12,21c-4.962,0-9-4.037-9-9 c0-4.962,4.038-9,9-9c4.963,0,9,4.038,9,9C21,16.963,16.963,21,12,21z M13.248,6.222c-2.079-0.73-4.369,0.366-5.102,2.446C7.963,9.189,8.237,9.76,8.758,9.943s1.092-0.091,1.275-0.611 c0.367-1.041,1.513-1.587,2.551-1.223C13.385,8.39,13.921,9.15,13.92,10c0,1.034-1.717,1.848-2.316,2.051 c-0.524,0.175-0.807,0.741-0.632,1.265C11.111,13.735,11.501,14,11.92,14c0.104,0,0.211-0.017,0.316-0.052 c0.377-0.125,3.684-1.304,3.684-3.947C15.923,8.304,14.849,6.785,13.248,6.222z M12.01,16H12c-0.552,0-0.995,0.447-0.995,1s0.453,1,1.005,1c0.553,0,1-0.447,1-1S12.563,16,12.01,16z"/>
</svg>
